<svg id="Capa_1" data-name="Capa 1" xmlns="http://www.w3.org/2000/svg" viewBox="0 0 14.54 12.9"><title>favicon2</title><path d="M10.4,10.44l2.3,1.34L15,10.44h-.34l-2-6.4a.41.41,0,0,0,.38-.41.41.41,0,0,0-.82,0A.39.39,0,0,0,12.4,4h0a1.48,1.48,0,0,1-1,0l-1-.38-.6-.2a2.63,2.63,0,0,0-1.87.28s-.15,0-.08-.27l0,0,0,0h0l.7-.72h0L7.68.85,6.84,2.7h0l.68.71c.08.32-.08.28-.08.28a2.63,2.63,0,0,0-1.87-.28l-.6.2L4,4A1.51,1.51,0,0,1,3,4a.39.39,0,0,0,.16-.32.41.41,0,0,0-.41-.41.41.41,0,0,0-.41.41A.41.41,0,0,0,2.71,4l-2,6.4H.46l2.3,1.34,2.3-1.34H4.71L2.74,4l.08,0,0,0a2.2,2.2,0,0,0,1,.16l1.54-.38a1.94,1.94,0,0,1,1.85.44l0,0h0c0,.07-.15.67.23.84H7.3a.14.14,0,0,0-.1.05.12.12,0,0,0,0,.1.14.14,0,0,0,.14.14h.24a.13.13,0,0,0-.13.13V9.87H7.12a.33.33,0,0,0-.23.1.32.32,0,0,0-.09.23.32.32,0,0,0,.32.32,2.06,2.06,0,0,1-1.9,2.28H4.79v.48H4.14v.48h7.08v-.48h-.61V12.8h-.48a2.06,2.06,0,0,1-1.9-2.28h0a.36.36,0,0,0,.23-.09.32.32,0,0,0,.09-.23.32.32,0,0,0-.32-.33H8V5.56a.13.13,0,0,0-.13-.13h.23a.13.13,0,0,0,.1,0,.12.12,0,0,0,0-.1.15.15,0,0,0-.14-.15H7.87c.37-.16.25-.77.23-.84h0l0,0,0,0A2,2,0,0,1,10,3.82l1.53.38a2.18,2.18,0,0,0,1-.16l0,0,.12,0-2,6.4Zm2.3-5.86,1.81,5.86H12.7Zm-10,5.86H.84L2.66,4.61Zm.1-5.86,1.8,5.86H2.76Zm9.84,0v5.83H10.79Z" transform="translate(-0.46 -0.85)"/></svg>